<svg width="259" height="158" viewBox="0 0 259 158" fill="none" xmlns="http://www.w3.org/2000/svg">
<path d="M56.3 101.34C54.464 101.34 52.7413 101 51.132 100.32C49.5453 99.6173 48.1513 98.654 46.95 97.43C45.7713 96.1833 44.842 94.7327 44.162 93.078C43.5047 91.4233 43.176 89.6327 43.176 87.706C43.176 85.802 43.5047 84.034 44.162 82.402C44.842 80.7473 45.7713 79.308 46.95 78.084C48.1513 76.8373 49.5453 75.8627 51.132 75.16C52.7187 74.4573 54.4413 74.106 56.3 74.106C58.0453 74.106 59.5413 74.3327 60.788 74.786C62.0573 75.2393 63.3267 75.9873 64.596 77.03C64.7773 77.166 64.9133 77.3133 65.004 77.472C65.1173 77.608 65.1853 77.7553 65.208 77.914C65.2533 78.05 65.276 78.22 65.276 78.424C65.276 78.8547 65.1173 79.2173 64.8 79.512C64.5053 79.784 64.1427 79.9427 63.712 79.988C63.2813 80.0107 62.862 79.8633 62.454 79.546C61.6153 78.8207 60.7427 78.2653 59.836 77.88C58.952 77.4947 57.7733 77.302 56.3 77.302C54.9627 77.302 53.7047 77.574 52.526 78.118C51.3473 78.662 50.3047 79.41 49.398 80.362C48.514 81.314 47.8227 82.4247 47.324 83.694C46.8253 84.9407 46.576 86.278 46.576 87.706C46.576 89.1567 46.8253 90.5167 47.324 91.786C47.8227 93.0327 48.514 94.132 49.398 95.084C50.3047 96.036 51.3473 96.784 52.526 97.328C53.7047 97.8493 54.9627 98.11 56.3 98.11C57.456 98.11 58.544 97.9173 59.564 97.532C60.6067 97.124 61.604 96.5687 62.556 95.866C62.964 95.5713 63.3607 95.4467 63.746 95.492C64.154 95.5147 64.494 95.6733 64.766 95.968C65.038 96.24 65.174 96.6253 65.174 97.124C65.174 97.3507 65.1287 97.5773 65.038 97.804C64.9473 98.008 64.8113 98.2007 64.63 98.382C63.406 99.3567 62.0913 100.093 60.686 100.592C59.3033 101.091 57.8413 101.34 56.3 101.34ZM72.2237 94.234C71.725 94.234 71.3057 94.0753 70.9657 93.758C70.6484 93.418 70.4897 92.9987 70.4897 92.5V76.18C70.4897 75.6587 70.6484 75.2393 70.9657 74.922C71.3057 74.6047 71.725 74.446 72.2237 74.446C72.745 74.446 73.1644 74.6047 73.4817 74.922C73.799 75.2393 73.9577 75.6587 73.9577 76.18V92.5C73.9577 92.9987 73.799 93.418 73.4817 93.758C73.1644 94.0753 72.745 94.234 72.2237 94.234ZM86.1977 101.034C85.699 101.034 85.2797 100.875 84.9397 100.558C84.6224 100.218 84.4637 99.7987 84.4637 99.3V90.936C84.4637 89.644 84.2257 88.59 83.7497 87.774C83.2737 86.958 82.6277 86.3573 81.8117 85.972C81.0184 85.564 80.1004 85.36 79.0577 85.36C78.1057 85.36 77.2444 85.5527 76.4737 85.938C75.703 86.3233 75.091 86.8447 74.6377 87.502C74.1844 88.1367 73.9577 88.8733 73.9577 89.712H71.8157C71.8157 88.284 72.1557 87.0147 72.8357 85.904C73.5384 84.7707 74.4904 83.8753 75.6917 83.218C76.893 82.5607 78.2417 82.232 79.7377 82.232C81.3017 82.232 82.6957 82.572 83.9197 83.252C85.1664 83.9093 86.141 84.884 86.8437 86.176C87.569 87.468 87.9317 89.0547 87.9317 90.936V99.3C87.9317 99.7987 87.7617 100.218 87.4217 100.558C87.1044 100.875 86.6964 101.034 86.1977 101.034ZM72.2237 101.034C71.725 101.034 71.3057 100.875 70.9657 100.558C70.6484 100.218 70.4897 99.7987 70.4897 99.3V84.136C70.4897 83.6147 70.6484 83.1953 70.9657 82.878C71.3057 82.5607 71.725 82.402 72.2237 82.402C72.745 82.402 73.1644 82.5607 73.4817 82.878C73.799 83.1953 73.9577 83.6147 73.9577 84.136V99.3C73.9577 99.7987 73.799 100.218 73.4817 100.558C73.1644 100.875 72.745 101.034 72.2237 101.034ZM102.437 101.136C100.555 101.136 98.878 100.739 97.4047 99.946C95.954 99.13 94.8093 98.0193 93.9707 96.614C93.1547 95.186 92.7467 93.554 92.7467 91.718C92.7467 89.8593 93.132 88.2273 93.9027 86.822C94.696 85.394 95.784 84.2833 97.1667 83.49C98.5493 82.674 100.136 82.266 101.927 82.266C103.695 82.266 105.213 82.6627 106.483 83.456C107.752 84.2267 108.715 85.3033 109.373 86.686C110.053 88.046 110.393 89.6213 110.393 91.412C110.393 91.8427 110.245 92.2053 109.951 92.5C109.656 92.772 109.282 92.908 108.829 92.908H95.1267V90.188H108.727L107.333 91.14C107.31 90.0067 107.083 88.998 106.653 88.114C106.222 87.2073 105.61 86.4933 104.817 85.972C104.023 85.4507 103.06 85.19 101.927 85.19C100.635 85.19 99.524 85.4733 98.5947 86.04C97.688 86.6067 96.9967 87.3887 96.5207 88.386C96.0447 89.3607 95.8067 90.4713 95.8067 91.718C95.8067 92.9647 96.09 94.0753 96.6567 95.05C97.2233 96.0247 98.0053 96.7953 99.0027 97.362C100 97.9287 101.145 98.212 102.437 98.212C103.139 98.212 103.853 98.0873 104.579 97.838C105.327 97.566 105.927 97.26 106.381 96.92C106.721 96.6707 107.083 96.546 107.469 96.546C107.877 96.5233 108.228 96.6367 108.523 96.886C108.908 97.226 109.112 97.6 109.135 98.008C109.157 98.416 108.976 98.7673 108.591 99.062C107.82 99.674 106.857 100.173 105.701 100.558C104.567 100.943 103.479 101.136 102.437 101.136ZM122.584 101.136C120.77 101.136 119.15 100.728 117.722 99.912C116.316 99.0733 115.206 97.9513 114.39 96.546C113.596 95.118 113.2 93.5087 113.2 91.718C113.2 89.882 113.596 88.25 114.39 86.822C115.183 85.394 116.271 84.2833 117.654 83.49C119.036 82.674 120.623 82.266 122.414 82.266C123.751 82.266 124.975 82.5267 126.086 83.048C127.196 83.5467 128.194 84.306 129.078 85.326C129.395 85.6887 129.508 86.0627 129.418 86.448C129.327 86.8333 129.078 87.1733 128.67 87.468C128.352 87.6947 128.001 87.774 127.616 87.706C127.23 87.6153 126.879 87.4113 126.562 87.094C125.451 85.9153 124.068 85.326 122.414 85.326C121.258 85.326 120.238 85.598 119.354 86.142C118.47 86.6633 117.778 87.4 117.28 88.352C116.781 89.304 116.532 90.426 116.532 91.718C116.532 92.942 116.781 94.03 117.28 94.982C117.801 95.934 118.515 96.6933 119.422 97.26C120.328 97.804 121.382 98.076 122.584 98.076C123.377 98.076 124.068 97.9853 124.658 97.804C125.27 97.6 125.825 97.294 126.324 96.886C126.686 96.5913 127.06 96.4327 127.446 96.41C127.831 96.3647 128.171 96.4667 128.466 96.716C128.851 97.0333 129.066 97.396 129.112 97.804C129.157 98.1893 129.021 98.5407 128.704 98.858C127.072 100.377 125.032 101.136 122.584 101.136ZM137.836 94.2L135.728 91.888L146.166 82.572C146.506 82.2547 146.88 82.1073 147.288 82.13C147.718 82.1527 148.081 82.334 148.376 82.674C148.693 83.014 148.84 83.388 148.818 83.796C148.795 84.204 148.614 84.5667 148.274 84.884L137.836 94.2ZM136.238 101C135.739 101 135.331 100.853 135.014 100.558C134.719 100.241 134.572 99.8327 134.572 99.334V76.112C134.572 75.6133 134.719 75.2167 135.014 74.922C135.331 74.6047 135.739 74.446 136.238 74.446C136.736 74.446 137.133 74.6047 137.428 74.922C137.745 75.2167 137.904 75.6133 137.904 76.112V99.334C137.904 99.8327 137.745 100.241 137.428 100.558C137.133 100.853 136.736 101 136.238 101ZM148.376 100.83C148.013 101.125 147.605 101.249 147.152 101.204C146.721 101.181 146.358 100.989 146.064 100.626L139.162 92.092L141.542 89.848L148.614 98.552C148.908 98.9147 149.033 99.3113 148.988 99.742C148.965 100.15 148.761 100.513 148.376 100.83Z" fill="#F2F2F2"/>
<path d="M182.066 101C181.635 101 181.25 100.841 180.91 100.524C180.57 100.207 180.4 99.7873 180.4 99.266V82.504C180.4 80.872 180.717 79.4553 181.352 78.254C182.009 77.0527 182.916 76.1233 184.072 75.466C185.228 74.786 186.565 74.446 188.084 74.446C188.583 74.446 188.991 74.5933 189.308 74.888C189.648 75.1827 189.818 75.5567 189.818 76.01C189.818 76.4407 189.648 76.8147 189.308 77.132C188.991 77.4267 188.583 77.574 188.084 77.574C187.245 77.574 186.509 77.7667 185.874 78.152C185.239 78.5373 184.741 79.07 184.378 79.75C184.038 80.43 183.868 81.2347 183.868 82.164V99.266C183.868 99.7873 183.709 100.207 183.392 100.524C183.075 100.841 182.633 101 182.066 101ZM178.938 86.006C178.462 86.006 178.077 85.87 177.782 85.598C177.487 85.326 177.34 84.986 177.34 84.578C177.34 84.1247 177.487 83.762 177.782 83.49C178.077 83.218 178.462 83.082 178.938 83.082H187.336C187.812 83.082 188.197 83.218 188.492 83.49C188.787 83.762 188.934 84.1247 188.934 84.578C188.934 84.986 188.787 85.326 188.492 85.598C188.197 85.87 187.812 86.006 187.336 86.006H178.938ZM200.312 101.136C198.476 101.136 196.856 100.739 195.45 99.946C194.045 99.13 192.934 98.0193 192.118 96.614C191.325 95.186 190.928 93.554 190.928 91.718C190.928 89.8593 191.325 88.2273 192.118 86.822C192.934 85.394 194.045 84.2833 195.45 83.49C196.856 82.674 198.476 82.266 200.312 82.266C202.126 82.266 203.735 82.674 205.14 83.49C206.546 84.2833 207.645 85.394 208.438 86.822C209.254 88.2273 209.662 89.8593 209.662 91.718C209.662 93.554 209.266 95.186 208.472 96.614C207.679 98.0193 206.58 99.13 205.174 99.946C203.769 100.739 202.148 101.136 200.312 101.136ZM200.312 98.076C201.491 98.076 202.534 97.804 203.44 97.26C204.347 96.716 205.05 95.968 205.548 95.016C206.07 94.064 206.33 92.9647 206.33 91.718C206.33 90.4713 206.07 89.372 205.548 88.42C205.05 87.4453 204.347 86.686 203.44 86.142C202.534 85.598 201.491 85.326 200.312 85.326C199.134 85.326 198.091 85.598 197.184 86.142C196.278 86.686 195.564 87.4453 195.042 88.42C194.521 89.372 194.26 90.4713 194.26 91.718C194.26 92.9647 194.521 94.064 195.042 95.016C195.564 95.968 196.278 96.716 197.184 97.26C198.091 97.804 199.134 98.076 200.312 98.076ZM223.256 101.136C221.42 101.136 219.799 100.739 218.394 99.946C216.988 99.13 215.878 98.0193 215.062 96.614C214.268 95.186 213.872 93.554 213.872 91.718C213.872 89.8593 214.268 88.2273 215.062 86.822C215.878 85.394 216.988 84.2833 218.394 83.49C219.799 82.674 221.42 82.266 223.256 82.266C225.069 82.266 226.678 82.674 228.084 83.49C229.489 84.2833 230.588 85.394 231.382 86.822C232.198 88.2273 232.606 89.8593 232.606 91.718C232.606 93.554 232.209 95.186 231.416 96.614C230.622 98.0193 229.523 99.13 228.118 99.946C226.712 100.739 225.092 101.136 223.256 101.136ZM223.256 98.076C224.434 98.076 225.477 97.804 226.384 97.26C227.29 96.716 227.993 95.968 228.492 95.016C229.013 94.064 229.274 92.9647 229.274 91.718C229.274 90.4713 229.013 89.372 228.492 88.42C227.993 87.4453 227.29 86.686 226.384 86.142C225.477 85.598 224.434 85.326 223.256 85.326C222.077 85.326 221.034 85.598 220.128 86.142C219.221 86.686 218.507 87.4453 217.986 88.42C217.464 89.372 217.204 90.4713 217.204 91.718C217.204 92.9647 217.464 94.064 217.986 95.016C218.507 95.968 219.221 96.716 220.128 97.26C221.034 97.804 222.077 98.076 223.256 98.076ZM246.199 101.136C244.431 101.136 242.833 100.728 241.405 99.912C240 99.0733 238.878 97.94 238.039 96.512C237.223 95.084 236.815 93.4747 236.815 91.684C236.815 89.8933 237.189 88.2953 237.937 86.89C238.708 85.462 239.75 84.34 241.065 83.524C242.38 82.6853 243.864 82.266 245.519 82.266C246.856 82.266 248.092 82.5493 249.225 83.116C250.358 83.66 251.31 84.408 252.081 85.36V76.18C252.081 75.6587 252.24 75.2393 252.557 74.922C252.897 74.6047 253.316 74.446 253.815 74.446C254.336 74.446 254.756 74.6047 255.073 74.922C255.39 75.2393 255.549 75.6587 255.549 76.18V91.684C255.549 93.4747 255.13 95.084 254.291 96.512C253.475 97.94 252.364 99.0733 250.959 99.912C249.554 100.728 247.967 101.136 246.199 101.136ZM246.199 98.076C247.355 98.076 248.386 97.804 249.293 97.26C250.2 96.6933 250.914 95.9227 251.435 94.948C251.956 93.9733 252.217 92.8853 252.217 91.684C252.217 90.46 251.956 89.372 251.435 88.42C250.914 87.468 250.2 86.72 249.293 86.176C248.386 85.6093 247.355 85.326 246.199 85.326C245.066 85.326 244.034 85.6093 243.105 86.176C242.198 86.72 241.473 87.468 240.929 88.42C240.408 89.372 240.147 90.46 240.147 91.684C240.147 92.8853 240.408 93.9733 240.929 94.948C241.473 95.9227 242.198 96.6933 243.105 97.26C244.034 97.804 245.066 98.076 246.199 98.076Z" fill="#F2F2F2"/>
<path d="M163.064 107C161.72 107 160.568 106.52 159.608 105.56C158.648 104.6 158.168 103.416 158.168 102.008V79.64L132.536 39.8C131.704 38.456 131.384 37.208 131.576 36.056C131.768 34.84 132.312 33.88 133.208 33.176C134.168 32.408 135.256 32.024 136.472 32.024C137.56 32.024 138.424 32.28 139.064 32.792C139.704 33.24 140.312 33.912 140.888 34.808L165.272 73.496H161.432L186.2 34.424C186.712 33.656 187.32 33.08 188.024 32.696C188.728 32.248 189.592 32.024 190.616 32.024C191.768 32.024 192.728 32.44 193.496 33.272C194.264 34.04 194.712 35.032 194.84 36.248C194.968 37.4 194.648 38.584 193.88 39.8L168.056 79.64V102.008C168.056 103.416 167.576 104.6 166.616 105.56C165.656 106.52 164.472 107 163.064 107Z" fill="#E9EBFF"/>
<path d="M80.5812 116.582C81.4606 112.788 85.0015 110.361 85.0015 110.361C85.0015 110.361 87.1166 114.085 86.2372 117.879C85.3578 121.673 81.8169 124.1 81.8169 124.1C81.8169 124.1 79.7018 120.376 80.5812 116.582Z" fill="#FF6584"/>
<path d="M64.2652 133.064C66.7604 130.074 66.3456 125.964 66.3456 125.964C66.3456 125.964 61.8852 126.701 59.39 129.691C56.8948 132.681 57.3096 136.791 57.3096 136.791C57.3096 136.791 61.77 136.053 64.2652 133.064Z" fill="#FF6584"/>
<path d="M62.0488 132.527C62.4794 128.64 65.686 125.826 65.686 125.826C65.686 125.826 68.1944 129.315 67.7638 133.203C67.3331 137.09 64.1265 139.904 64.1265 139.904C64.1265 139.904 61.6181 136.415 62.0488 132.527Z" fill="#F2F2F2"/>
<path d="M65.8201 119.036C69.553 120.209 73.4208 118.411 73.4208 118.411C73.4208 118.411 71.2365 114.711 67.5037 113.538C63.7708 112.365 59.903 114.162 59.903 114.162C59.903 114.162 62.0873 117.862 65.8201 119.036Z" fill="#F2F2F2"/>
<path d="M125.857 118.834C124.13 119.57 122.228 119.772 120.392 119.414C117.73 118.851 115.578 117.046 113.497 115.299C113.118 114.982 112.741 114.665 112.362 114.357C110.835 113.085 109.178 111.98 107.42 111.061C100.854 107.718 92.2445 107.878 84.3894 111.49C78.1316 114.368 72.1394 119.36 66.0702 126.753L65.8013 126.528C71.9052 119.093 77.9384 114.069 84.2457 111.168C92.1964 107.512 100.919 107.354 107.579 110.745C109.359 111.676 111.036 112.794 112.582 114.081C112.962 114.39 113.341 114.708 113.721 115.027C115.77 116.746 117.888 118.523 120.465 119.068C122.232 119.412 124.063 119.216 125.725 118.507L125.857 118.834Z" fill="#F2F2F2"/>
<path d="M62.3882 142.93C62.7615 141.137 61.61 139.38 59.8161 139.007C58.0223 138.633 56.2655 139.785 55.8922 141.579C55.5189 143.372 56.6705 145.129 58.4643 145.503C60.2581 145.876 62.0149 144.724 62.3882 142.93Z" fill="#F2F2F2"/>
<path d="M26.7959 106.357C26.0888 110.186 28.3676 113.824 28.3676 113.824C28.3676 113.824 31.7929 111.253 32.5 107.423C33.2071 103.593 30.9283 99.9554 30.9283 99.9554C30.9283 99.9554 27.503 102.527 26.7959 106.357Z" fill="#FF6584"/>
<path d="M18.4094 84.7343C19.5048 88.4714 17.4848 92.0748 17.4848 92.0748C17.4848 92.0748 13.6888 89.6193 12.5934 85.8823C11.4981 82.1453 13.5181 78.5418 13.5181 78.5418C13.5181 78.5418 17.314 80.9973 18.4094 84.7343Z" fill="#FF6584"/>
<path d="M16.163 84.3417C15.0072 88.0781 16.8251 91.9375 16.8251 91.9375C16.8251 91.9375 20.5171 89.7389 21.6729 86.0024C22.8288 82.266 21.0108 78.4067 21.0108 78.4067C21.0108 78.4067 17.3189 80.6053 16.163 84.3417Z" fill="#F2F2F2"/>
<path d="M14.2395 98.2179C18.1305 98.6311 20.96 101.823 20.96 101.823C20.96 101.823 17.4811 104.344 13.5901 103.931C9.69918 103.517 6.86964 100.326 6.86964 100.326C6.86964 100.326 10.3486 97.8046 14.2395 98.2179Z" fill="#F2F2F2"/>
<path d="M33.261 121.381C36.8073 120.078 40.5721 121.564 40.5721 121.564C40.5721 121.564 38.5872 125.162 35.0409 126.465C31.4946 127.768 27.7298 126.283 27.7298 126.283C27.7298 126.283 29.7147 122.684 33.261 121.381Z" fill="#F2F2F2"/>
<path d="M69.212 122.354L68.9604 122.601C67.7195 121.287 66.1184 120.378 64.3607 119.988C61.7807 119.459 59.1295 120.244 56.5655 121.003C56.0896 121.144 55.6152 121.284 55.1429 121.416C53.2115 121.979 51.2277 122.336 49.2243 122.479C41.7648 122.932 33.8294 119.307 27.9971 112.783C23.3704 107.607 19.8424 100.593 17.2114 91.3398L17.5478 91.2407C20.1637 100.441 23.6669 107.41 28.2573 112.545C34.0194 118.991 41.8503 122.572 49.2049 122.126C51.1839 121.984 53.1435 121.632 55.0512 121.075C55.5218 120.944 55.9944 120.804 56.4686 120.663C59.0735 119.893 61.767 119.095 64.4317 119.641C66.2582 120.045 67.9221 120.989 69.212 122.354V122.354Z" fill="#F2F2F2"/>
<path d="M20.6246 74.9378C20.9979 73.144 19.8463 71.3872 18.0525 71.0139C16.2586 70.6406 14.5018 71.7921 14.1285 73.586C13.7553 75.3798 14.9068 77.1366 16.7006 77.5099C18.4945 77.8832 20.2513 76.7316 20.6246 74.9378Z" fill="#F2F2F2"/>
<path d="M200.393 13.4773C201.005 16.9137 204.125 18.8532 204.125 18.8532C204.125 18.8532 206.251 15.2212 205.639 11.7848C205.027 8.34836 201.907 6.40881 201.907 6.40881C201.907 6.40881 199.781 10.0408 200.393 13.4773Z" fill="#FF6584"/>
<path d="M201.816 12.025C204.4 14.5463 204.361 18.6578 204.361 18.6578C204.361 18.6578 200.132 18.6816 197.548 16.1603C194.964 13.639 195.003 9.52749 195.003 9.52749C195.003 9.52749 199.232 9.50376 201.816 12.025Z" fill="#F2F2F2"/>
<path d="M209.655 23.4068C206.677 25.4384 205.647 29.1397 205.647 29.1397C205.647 29.1397 209.446 29.5471 212.424 27.5155C215.403 25.4839 216.433 21.7826 216.433 21.7826C216.433 21.7826 212.634 21.3752 209.655 23.4068Z" fill="#F2F2F2"/>
<path d="M203.797 50.7167C200.263 51.2102 197.763 54.1161 197.763 54.1161C197.763 54.1161 200.995 56.222 204.529 55.7285C208.064 55.2351 210.564 52.3291 210.564 52.3291C210.564 52.3291 207.332 50.2232 203.797 50.7167Z" fill="#F2F2F2"/>
<path d="M174.75 67.0901L175.063 67.1831C175.511 65.5718 176.429 64.135 177.7 63.0552C179.583 61.5059 182.092 60.999 184.518 60.5089C184.969 60.4179 185.418 60.3272 185.861 60.2303C187.685 59.8545 189.463 59.2868 191.165 58.5366C197.466 55.6758 202.396 49.2759 204.354 41.4169C205.906 35.1825 205.766 27.921 203.925 19.2176L203.607 19.2823C205.437 27.9361 205.578 35.1497 204.038 41.3353C202.104 49.0996 197.241 55.419 191.028 58.2396C189.347 58.9804 187.591 59.541 185.789 59.9121C185.347 60.0085 184.9 60.0988 184.451 60.1895C181.986 60.6875 179.437 61.2024 177.492 62.8027C176.171 63.9239 175.217 65.4162 174.75 67.0901V67.0901Z" fill="#F2F2F2"/>
<path d="M193.624 6.77447C192.568 5.49816 192.919 3.46429 194.408 2.23171C195.897 0.999116 197.96 1.03456 199.017 2.31087C200.073 3.58717 199.723 5.62104 198.234 6.85363C196.745 8.08622 194.681 8.05077 193.624 6.77447Z" fill="#F2F2F2"/>
</svg>
